# xmcd CD database file generated by Grip 2.95
# 
# Track frame offsets:
#       182
#       18350
#       35567
#       51815
#       73962
#       90772
#       108467
#       129210
#       147670
#       166040
#       180572
#       197137
#       213932
#       231605
#       245195
#       264822
# 
# Disc length: 3777 seconds
# 
# Revision: 3
# Processed by: cddbd v1.4PL0 Copyright (c) Steve Scherf et al.
# Submitted via: Grip 2.95
# 
DISCID=e20ebf10
DTITLE=Sonny Terry - Brownie Mc Ghee - Sonny Terry - Brownie Mc Ghee
DYEAR=1900
DGENRE=
TTITLE0=I Got A woman
TTITLE1=Thinkin And Worrying
TTITLE2=Stranger Here
TTITLE3=Trouble In Mind
TTITLE4=Diggin My Potatoes
TTITLE5=Just A Closer Walk With Thee
TTITLE6=John Henry
TTITLE7=Blues Feeling
TTITLE8=I'm Gonna Get On My Feets Aftewhile
TTITLE9=Motorcycle Blues
TTITLE10=Walkin And Lyin Down
TTITLE11=Born To Live The Blues
TTITLE12=Worried Blues
TTITLE13=Back To New Orleans
TTITLE14=If I Could Wear My Mother Pray
TTITLE15=Midnight Special
EXTD=
EXTT0=
EXTT1=
EXTT2=
EXTT3=
EXTT4=
EXTT5=
EXTT6=
EXTT7=
EXTT8=
EXTT9=
EXTT10=
EXTT11=
EXTT12=
EXTT13=
EXTT14=
EXTT15=
PLAYORDER=
